novice football player is injured in a bar fight and is out of the next tournament. Jobless and with a pregnant girlfriend, he buys an ice cream van and starts his work. Soon a gang of Polish drug mafia starts irritating him. For protection he joins hands with a British mafia involved in football hooliganism. After many bloody fights, he is forced to work in drug dealing. Now rope is tightening for him as police is following his activities, so he decides to get out of this dangerous business before it is too late. Will he succeed in his goal?

Genre:Crime
 Language:English
 IMDb: http://www.imdb.com/title/tt2354437/
 Source:Blu-ray Thanks
 Encoder:Tony
 
Format : AVI
 Format/Info : Audio Video Interleave
 File size : 804 MiB
 Duration : 1h 16mn
 Overall bit rate : 1 464 Kbps
 
Video
 ID : 0
 Format : MPEG-4 Visual
 Format profile : Advanced Simple@L5
 Format settings, BVOP : 1
 Format settings, QPel : No
 Format settings, GMC : No warppoints
 Format settings, Matrix : Default (H.263)
 Codec ID : XVID
 Codec ID/Hint : XviD
 Duration : 1h 16mn
 Bit rate : 1 070 Kbps
 Width : 640 pixels
 Height : 272 pixels
 Display aspect ratio : 2.35:1
 Frame rate : 25.000 fps
 Color space : YUV
 Chroma subsampling : 4:2:0
 Bit depth : 8 bits
 Scan type : Progressive
 Compression mode : Lossy
 Bits/(Pixel*Frame) : 0.246
 Stream size : 588 MiB (73%)
 Writing library : XviD 1.2.1 (UTC 2008-12-04)
 
Audio
 ID : 1
 Format : AC-3
 Format/Info : Audio Coding 3
 Mode extension : CM (complete main)
 Codec ID : 2000
 Duration : 1h 16mn
 Bit rate mode : Constant
 Bit rate : 384 Kbps
 Channel(s) : 6 channels
 Channel positions : Front: L C R, Side: L R, LFE
 Sampling rate : 48.0 KHz
 Bit depth : 16 bits
 Compression mode : Lossy
 Stream size : 211 MiB (26%)
 Alignment : Aligned on interleaves
 Interleave, duration : 40 ms (1.00 video frame)
 Interleave, preload duration : 512 ms
 
http://www.shotpix.com/images/77626543493999138471.png 
http://www.shotpix.com/images/06634111978322815412.png 
http://www.shotpix.com/images/46985487424213602031.png